<?xml version="1.0" encoding="utf-8"?><!-- Generator: Adobe Illustrator 15.0.0, SVG Export Plug-In . SVG Version: 6.00 Build 0)  --><!DOCTYPE svg PUBLIC "-//W3C//DTD SVG 1.1//EN" "http://www.w3.org/Graphics/SVG/1.1/DTD/svg11.dtd"><svg xmlns="http://www.w3.org/2000/svg" xmlns:xlink="http://www.w3.org/1999/xlink" viewBox="0 0 48 48" width="480px" height="480px"><g><polygon fill="#388E3C" points="41,42 7,42 12,37 36,37 "/><rect x="19" y="32.875" fill="#388E3C" width="10" height="5"/></g><path fill="#4CAF50" d="M42,33c0,1.104-0.896,2-2,2H8c-1.104,0-2-0.896-2-2V8c0-1.104,0.896-2,2-2h32c1.104,0,2,0.896,2,2V33z"/><rect x="9" y="9" fill="#1B5E20" width="30" height="22.875"/><g><rect x="15.551" y="11.893" transform="matrix(0.7072 0.707 -0.707 0.7072 17.2899 -6.9623)" fill="#66BB6A" width="3" height="11"/><rect x="15.55" y="17.55" transform="matrix(0.7069 -0.7073 0.7073 0.7069 -11.3057 18.814)" fill="#66BB6A" width="3" height="11"/><rect x="29.55" y="11.893" transform="matrix(-0.7071 0.7071 -0.7071 -0.7071 65.3049 7.7359)" fill="#66BB6A" width="3" height="11"/><rect x="29.55" y="17.55" transform="matrix(-0.7069 -0.7073 0.7073 -0.7069 36.6987 61.3057)" fill="#66BB6A" width="3" height="11"/></g></svg>