<?xml version="1.0" encoding="iso-8859-1"?>
<!-- Generator: Adobe Illustrator 24.1.2, SVG Export Plug-In . SVG Version: 6.00 Build 0)  -->
<svg version="1.1" xmlns="http://www.w3.org/2000/svg" xmlns:xlink="http://www.w3.org/1999/xlink" x="0px" y="0px"
	 viewBox="0 0 48 48" style="enable-background:new 0 0 48 48;" xml:space="preserve">
<g id="Layer_10" style="display:none;">
	<g style="display:inline;opacity:0.05;">
		<g>
			<circle style="fill:#FFFFFF;" cx="18" cy="24" r="19.5"/>
			<path d="M18,5c10.477,0,19,8.523,19,19s-8.523,19-19,19S-1,34.477-1,24S7.523,5,18,5 M18,4C6.954,4-2,12.954-2,24s8.954,20,20,20
				s20-8.954,20-20S29.046,4,18,4L18,4z"/>
		</g>
		<g>
			<rect x="0.5" y="6.5" style="fill:#FFFFFF;" width="35" height="35"/>
			<path d="M35,7v34H1V7H35 M36,6H0v36h36V6L36,6z"/>
		</g>
	</g>
</g>
<g id="filled">
</g>
<g id="outlined">
</g>
<g id="rounded">
</g>
<g id="two_x5F_tone">
</g>
<g id="sharp">
</g>
<g id="win10">
</g>
<g id="ios_x5F_out">
</g>
<g id="ios_x5F_filled">
</g>
<g id="color">
	<path style="fill:#1E88E5;" d="M34,42H14c-4.411,0-8-3.589-8-8V14c0-4.411,3.589-8,8-8h20c4.411,0,8,3.589,8,8v20
		C42,38.411,38.411,42,34,42z"/>
	<path style="fill:#FFFFFF;" d="M35.926,17.488L29.414,24l6.511,6.511C35.969,30.347,36,30.178,36,30V18
		C36,17.822,35.969,17.653,35.926,17.488z M26.688,23.899l7.824-7.825C34.347,16.031,34.178,16,34,16H14
		c-0.178,0-0.347,0.031-0.512,0.074l7.824,7.825C22.795,25.38,25.205,25.38,26.688,23.899z M24,27.009
		c-1.44,0-2.873-0.542-3.99-1.605l-6.522,6.522C13.653,31.969,13.822,32,14,32h20c0.178,0,0.347-0.031,0.512-0.074l-6.522-6.522
		C26.873,26.467,25.44,27.009,24,27.009z M12.074,17.488C12.031,17.653,12,17.822,12,18v12c0,0.178,0.031,0.347,0.074,0.512
		L18.586,24L12.074,17.488z"/>
</g>
<g id="fluent">
</g>
<g id="cloud">
</g>
<g id="bubbles">
</g>
<g id="gradient">
</g>
</svg>